{
  "accessors": [
    {
      "bufferView": 2,
      "componentType": 5126,
      "count": 8662,
      "max": [
        0.3481343388557434,
        0.34813442826271057,
        0.68660968542099
      ],
      "min": [
        -0.34813442826271057,
        -0.3481343686580658,
        5.649644663208164e-05
      ],
      "type": "VEC3"
    },
    {
      "bufferView": 2,
      "byteOffset": 103944,
      "componentType": 5126,
      "count": 8662,
      "max": [
        0.9999991655349731,
        0.9999991655349731,
        0.999987781047821
      ],
      "min": [
        -0.9999991655349731,
        -0.9999991655349731,
        -1.0
      ],
      "type": "VEC3"
    },
    {
      "bufferView": 3,
      "componentType": 5126,
      "count": 8662,
      "max": [
        0.9951028227806091,
        0.9953181743621826,
        0.6997962594032288,
        1.0
      ],
      "min": [
        -0.9999974370002747,
        -0.999970555305481,
        -1.0,
        1.0
      ],
      "type": "VEC4"
    },
    {
      "bufferView": 1,
      "componentType": 5126,
      "count": 8662,
      "max": [
        0.9923534393310547,
        0.9998657703399658
      ],
      "min": [
        0.00013427605153992772,
        0.00013427605153992772
      ],
      "type": "VEC2"
    },
    {
      "bufferView": 1,
      "byteOffset": 69296,
      "componentType": 5126,
      "count": 8662,
      "max": [
        0.9923534393310547,
        0.9998657703399658
      ],
      "min": [
        0.00013427605153992772,
        0.00013427605153992772
      ],
      "type": "VEC2"
    },
    {
      "bufferView": 1,
      "byteOffset": 138592,
      "componentType": 5126,
      "count": 8662,
      "max": [
        0.9923534393310547,
        0.9998657703399658
      ],
      "min": [
        0.00013427605153992772,
        0.00013427605153992772
      ],
      "type": "VEC2"
    },
    {
      "bufferView": 0,
      "componentType": 5125,
      "count": 48384,
      "type": "SCALAR"
    },
    {
      "bufferView": 2,
      "byteOffset": 207888,
      "componentType": 5126,
      "count": 5377,
      "max": [
        1.085242748260498,
        1.0278242826461792,
        1.7835719585418701
      ],
      "min": [
        -1.1144919395446777,
        -1.055275559425354,
        0.30181604623794556
      ],
      "type": "VEC3"
    },
    {
      "bufferView": 2,
      "byteOffset": 272412,
      "componentType": 5126,
      "count": 5377,
      "max": [
        0.9972228407859802,
        0.9998000860214233,
        0.9999298453330994
      ],
      "min": [
        -0.9994823336601257,
        -0.9993579983711243,
        -0.9544240832328796
      ],
      "type": "VEC3"
    },
    {
      "bufferView": 3,
      "byteOffset": 138592,
      "componentType": 5126,
      "count": 5377,
      "max": [
        0.999934732913971,
        0.9999867677688599,
        0.9919600486755371,
        1.0
      ],
      "min": [
        -0.9997449517250061,
        -0.9994271993637085,
        -0.9231891632080078,
        -1.0
      ],
      "type": "VEC4"
    },
    {
      "bufferView": 1,
      "byteOffset": 207888,
      "componentType": 5126,
      "count": 5377,
      "max": [
        0.9945801496505737,
        0.9999975562095642
      ],
      "min": [
        0.005537951365113258,
        0.0027937437407672405
      ],
      "type": "VEC2"
    },
    {
      "bufferView": 0,
      "byteOffset": 193536,
      "componentType": 5125,
      "count": 24903,
      "type": "SCALAR"
    }
  ],
  "asset": {
    "extras": {
      "author": "AllQuad (https://sketchfab.com/AllQuad)",
      "license": "SKETCHFAB Standard (https://sketchfab.com/licenses)",
      "source": "https://sketchfab.com/3d-models/design-pot-plant-monstera-deliciosa-1f4f3d477f8e4a37a04efbcf173938a3",
      "title": "Design Pot Plant Monstera Deliciosa"
    },
    "generator": "Sketchfab-13.44.0",
    "version": "2.0"
  },
  "bufferViews": [
    {
      "buffer": 0,
      "byteLength": 293148,
      "name": "floatBufferViews",
      "target": 34963
    },
    {
      "buffer": 0,
      "byteLength": 250904,
      "byteOffset": 293148,
      "byteStride": 8,
      "name": "floatBufferViews",
      "target": 34962
    },
    {
      "buffer": 0,
      "byteLength": 336936,
      "byteOffset": 544052,
      "byteStride": 12,
      "name": "floatBufferViews",
      "target": 34962
    },
    {
      "buffer": 0,
      "byteLength": 224624,
      "byteOffset": 880988,
      "byteStride": 16,
      "name": "floatBufferViews",
      "target": 34962
    }
  ],
  "buffers": [
    {
      "byteLength": 1105612,
      "uri": "scene.bin"
    }
  ],
  "images": [
    {
      "uri": "textures/B_TERRACOTTA_PLANTER_Mat_VAR02_baseColor.jpeg"
    },
    {
      "uri": "textures/B_TERRACOTTA_PLANTER_Mat_VAR02_metallicRoughness.png"
    },
    {
      "uri": "textures/B_TERRACOTTA_PLANTER_Mat_VAR02_normal.jpeg"
    },
    {
      "uri": "textures/MONSTERA_BIG_Mat.002_baseColor.png"
    },
    {
      "uri": "textures/MONSTERA_BIG_Mat.002_metallicRoughness.png"
    },
    {
      "uri": "textures/MONSTERA_BIG_Mat.002_normal.jpeg"
    }
  ],
  "materials": [
    {
      "doubleSided": true,
      "name": "B_TERRACOTTA_PLANTER_Mat_VAR02",
      "normalTexture": {
        "index": 2
      },
      "pbrMetallicRoughness": {
        "baseColorTexture": {
          "index": 0
        },
        "metallicFactor": 0.0,
        "metallicRoughnessTexture": {
          "index": 1
        }
      }
    },
    {
      "alphaMode": "BLEND",
      "doubleSided": true,
      "name": "MONSTERA_BIG_Mat.002",
      "normalTexture": {
        "index": 5
      },
      "pbrMetallicRoughness": {
        "baseColorTexture": {
          "index": 3
        },
        "metallicFactor": 0.0,
        "metallicRoughnessTexture": {
          "index": 4
        }
      }
    }
  ],
  "meshes": [
    {
      "name": "B_TERRACOTTA_PLANTER_VAR02_B_TERRACOTTA_PLANTER_Mat_VAR02_0",
      "primitives": [
        {
          "attributes": {
            "NORMAL": 1,
            "POSITION": 0,
            "TANGENT": 2,
            "TEXCOORD_0": 3,
            "TEXCOORD_1": 4,
            "TEXCOORD_2": 5
          },
          "indices": 6,
          "material": 0,
          "mode": 4
        }
      ]
    },
    {
      "name": "MONSTERA_BIG_MONSTERA_BIG_Mat.002_0",
      "primitives": [
        {
          "attributes": {
            "NORMAL": 8,
            "POSITION": 7,
            "TANGENT": 9,
            "TEXCOORD_0": 10
          },
          "indices": 11,
          "material": 1,
          "mode": 4
        }
      ]
    }
  ],
  "nodes": [
    {
      "children": [
        1
      ],
      "matrix": [
        1.0,
        0.0,
        0.0,
        0.0,
        0.0,
        2.220446049250313e-16,
        -1.0,
        0.0,
        0.0,
        1.0,
        2.220446049250313e-16,
        0.0,
        0.0,
        0.0,
        0.0,
        1.0
      ],
      "name": "Sketchfab_model"
    },
    {
      "children": [
        2
      ],
      "matrix": [
        0.009999999776482582,
        0.0,
        0.0,
        0.0,
        0.0,
        0.0,
        0.009999999776482582,
        0.0,
        0.0,
        -0.009999999776482582,
        0.0,
        0.0,
        0.0,
        0.0,
        0.0,
        1.0
      ],
      "name": "a598410c390f4ead90a1c542c6e275a8.fbx"
    },
    {
      "children": [
        3
      ],
      "name": "RootNode"
    },
    {
      "children": [
        4,
        5
      ],
      "matrix": [
        100.0,
        0.0,
        0.0,
        0.0,
        0.0,
        -1.629206793918314e-05,
        -99.99999999999868,
        0.0,
        0.0,
        99.99999999999868,
        -1.629206793918314e-05,
        0.0,
        0.0,
        0.0,
        0.0,
        1.0
      ],
      "name": "B_TERRACOTTA_PLANTER_VAR02"
    },
    {
      "mesh": 0,
      "name": "B_TERRACOTTA_PLANTER_VAR02_B_TERRACOTTA_PLANTER_Mat_VAR02_0"
    },
    {
      "children": [
        6
      ],
      "matrix": [
        1.0,
        0.0,
        0.0,
        0.0,
        0.0,
        1.0,
        -2.646977960169688e-23,
        0.0,
        0.0,
        2.646977960169688e-23,
        1.0,
        0.0,
        0.0,
        0.0,
        0.0,
        1.0
      ],
      "name": "MONSTERA_BIG"
    },
    {
      "mesh": 1,
      "name": "MONSTERA_BIG_MONSTERA_BIG_Mat.002_0"
    }
  ],
  "samplers": [
    {
      "magFilter": 9729,
      "minFilter": 9987,
      "wrapS": 10497,
      "wrapT": 10497
    }
  ],
  "scene": 0,
  "scenes": [
    {
      "name": "Sketchfab_Scene",
      "nodes": [
        0
      ]
    }
  ],
  "textures": [
    {
      "sampler": 0,
      "source": 0
    },
    {
      "sampler": 0,
      "source": 1
    },
    {
      "sampler": 0,
      "source": 2
    },
    {
      "sampler": 0,
      "source": 3
    },
    {
      "sampler": 0,
      "source": 4
    },
    {
      "sampler": 0,
      "source": 5
    }
  ]
}
