{
    "asset" : {
        "generator" : "Khronos glTF Blender I/O v3.4.50",
        "version" : "2.0"
    },
    "scene" : 0,
    "scenes" : [
        {
            "name" : "Scene",
            "nodes" : [
                0
            ]
        }
    ],
    "nodes" : [
        {
            "mesh" : 0,
            "name" : "Cylinder.024",
            "rotation" : [
                0,
                0.9687300324440002,
                0,
                0.24811747670173645
            ],
            "translation" : [
                4.798677444458008,
                -0.09179246425628662,
                7.1325602531433105
            ]
        }
    ],
    "materials" : [
        {
            "doubleSided" : true,
            "name" : "PATASBAKE",
            "pbrMetallicRoughness" : {}
        }
    ],
    "meshes" : [
        {
            "name" : "Cylinder.030",
            "primitives" : [
                {
                    "attributes" : {
                        "POSITION" : 0,
                        "TEXCOORD_0" : 1,
                        "NORMAL" : 2
                    },
                    "indices" : 3,
                    "material" : 0
                }
            ]
        }
    ],
    "accessors" : [
        {
            "bufferView" : 0,
            "componentType" : 5126,
            "count" : 16128,
            "max" : [
                35.0524787902832,
                3.1560091972351074,
                24.06181526184082
            ],
            "min" : [
                -8.936295509338379,
                -0.05372775346040726,
                -9.759044647216797
            ],
            "type" : "VEC3"
        },
        {
            "bufferView" : 1,
            "componentType" : 5126,
            "count" : 16128,
            "type" : "VEC2"
        },
        {
            "bufferView" : 2,
            "componentType" : 5126,
            "count" : 16128,
            "type" : "VEC3"
        },
        {
            "bufferView" : 3,
            "componentType" : 5123,
            "count" : 26208,
            "type" : "SCALAR"
        }
    ],
    "bufferViews" : [
        {
            "buffer" : 0,
            "byteLength" : 193536,
            "byteOffset" : 0,
            "target" : 34962
        },
        {
            "buffer" : 0,
            "byteLength" : 129024,
            "byteOffset" : 193536,
            "target" : 34962
        },
        {
            "buffer" : 0,
            "byteLength" : 193536,
            "byteOffset" : 322560,
            "target" : 34962
        },
        {
            "buffer" : 0,
            "byteLength" : 52416,
            "byteOffset" : 516096,
            "target" : 34963
        }
    ],
    "buffers" : [
        {
            "byteLength" : 568512,
            "uri" : "PATAS.bin"
        }
    ]
}
