{
    "asset" : {
        "generator" : "Khronos glTF Blender I/O v1.6.16",
        "version" : "2.0"
    },
    "scene" : 0,
    "scenes" : [
        {
            "name" : "Scene",
            "nodes" : [
                0
            ]
        }
    ],
    "nodes" : [
        {
            "mesh" : 0,
            "name" : "Cube.020",
            "rotation" : [
                0,
                0.03213583678007126,
                0,
                0.9994835257530212
            ],
            "translation" : [
                -2.295044422149658,
                0,
                -25.639724731445312
            ]
        }
    ],
    "materials" : [
        {
            "doubleSided" : true,
            "name" : "NEGROMETAL_PARANTES",
            "pbrMetallicRoughness" : {
                "baseColorFactor" : [
                    0.004193865228444338,
                    0.004193865228444338,
                    0.004193865228444338,
                    1
                ],
                "metallicFactor" : 0.7590909004211426,
                "roughnessFactor" : 0.5
            }
        },
        {
            "doubleSided" : true,
            "name" : "PARANTEBAKE",
            "pbrMetallicRoughness" : {}
        },
        {
            "doubleSided" : true,
            "name" : "SOGA",
            "pbrMetallicRoughness" : {
                "baseColorTexture" : {
                    "index" : 0
                },
                "metallicFactor" : 0
            }
        }
    ],
    "meshes" : [
        {
            "name" : "Cube.029",
            "primitives" : [
                {
                    "attributes" : {
                        "POSITION" : 0,
                        "NORMAL" : 1,
                        "TEXCOORD_0" : 2
                    },
                    "indices" : 3,
                    "material" : 0
                },
                {
                    "attributes" : {
                        "POSITION" : 4,
                        "NORMAL" : 5,
                        "TEXCOORD_0" : 6
                    },
                    "indices" : 7,
                    "material" : 1
                },
                {
                    "attributes" : {
                        "POSITION" : 8,
                        "NORMAL" : 9,
                        "TEXCOORD_0" : 10
                    },
                    "indices" : 11,
                    "material" : 2
                }
            ]
        }
    ],
    "textures" : [
        {
            "sampler" : 0,
            "source" : 0
        }
    ],
    "images" : [
        {
            "mimeType" : "image/jpeg",
            "name" : "FabricRope001_COL_4K",
            "uri" : "FabricRope001_COL_4K.jpg"
        }
    ],
    "accessors" : [
        {
            "bufferView" : 0,
            "componentType" : 5126,
            "count" : 1504,
            "max" : [
                23.438268661499023,
                10.704699516296387,
                50.88262939453125
            ],
            "min" : [
                -0.1796557754278183,
                0.7386969327926636,
                -2.1204562187194824
            ],
            "type" : "VEC3"
        },
        {
            "bufferView" : 1,
            "componentType" : 5126,
            "count" : 1504,
            "type" : "VEC3"
        },
        {
            "bufferView" : 2,
            "componentType" : 5126,
            "count" : 1504,
            "type" : "VEC2"
        },
        {
            "bufferView" : 3,
            "componentType" : 5123,
            "count" : 2412,
            "type" : "SCALAR"
        },
        {
            "bufferView" : 4,
            "componentType" : 5126,
            "count" : 1296,
            "max" : [
                24.41899871826172,
                0.7386970520019531,
                51.86335754394531
            ],
            "min" : [
                -1.0000019073486328,
                -0.12882640957832336,
                -3.0299949645996094
            ],
            "type" : "VEC3"
        },
        {
            "bufferView" : 5,
            "componentType" : 5126,
            "count" : 1296,
            "type" : "VEC3"
        },
        {
            "bufferView" : 6,
            "componentType" : 5126,
            "count" : 1296,
            "type" : "VEC2"
        },
        {
            "bufferView" : 7,
            "componentType" : 5123,
            "count" : 1944,
            "type" : "SCALAR"
        },
        {
            "bufferView" : 8,
            "componentType" : 5126,
            "count" : 14760,
            "max" : [
                23.346921920776367,
                8.161258697509766,
                50.42180633544922
            ],
            "min" : [
                -0.20468759536743164,
                2.2878711223602295,
                -2.3325729370117188
            ],
            "type" : "VEC3"
        },
        {
            "bufferView" : 9,
            "componentType" : 5126,
            "count" : 14760,
            "type" : "VEC3"
        },
        {
            "bufferView" : 10,
            "componentType" : 5126,
            "count" : 14760,
            "type" : "VEC2"
        },
        {
            "bufferView" : 11,
            "componentType" : 5123,
            "count" : 68880,
            "type" : "SCALAR"
        }
    ],
    "bufferViews" : [
        {
            "buffer" : 0,
            "byteLength" : 18048,
            "byteOffset" : 0
        },
        {
            "buffer" : 0,
            "byteLength" : 18048,
            "byteOffset" : 18048
        },
        {
            "buffer" : 0,
            "byteLength" : 12032,
            "byteOffset" : 36096
        },
        {
            "buffer" : 0,
            "byteLength" : 4824,
            "byteOffset" : 48128
        },
        {
            "buffer" : 0,
            "byteLength" : 15552,
            "byteOffset" : 52952
        },
        {
            "buffer" : 0,
            "byteLength" : 15552,
            "byteOffset" : 68504
        },
        {
            "buffer" : 0,
            "byteLength" : 10368,
            "byteOffset" : 84056
        },
        {
            "buffer" : 0,
            "byteLength" : 3888,
            "byteOffset" : 94424
        },
        {
            "buffer" : 0,
            "byteLength" : 177120,
            "byteOffset" : 98312
        },
        {
            "buffer" : 0,
            "byteLength" : 177120,
            "byteOffset" : 275432
        },
        {
            "buffer" : 0,
            "byteLength" : 118080,
            "byteOffset" : 452552
        },
        {
            "buffer" : 0,
            "byteLength" : 137760,
            "byteOffset" : 570632
        }
    ],
    "samplers" : [
        {
            "magFilter" : 9729,
            "minFilter" : 9987
        }
    ],
    "buffers" : [
        {
            "byteLength" : 708392,
            "uri" : "PARANTES.bin"
        }
    ]
}
