{
    "asset" : {
        "generator" : "Khronos glTF Blender I/O v3.4.50",
        "version" : "2.0"
    },
    "scene" : 0,
    "scenes" : [
        {
            "name" : "Scene",
            "nodes" : [
                0
            ]
        }
    ],
    "nodes" : [
        {
            "mesh" : 0,
            "name" : "Cylinder.009",
            "rotation" : [
                0,
                0.04695764183998108,
                0,
                0.9988968968391418
            ]
        }
    ],
    "materials" : [
        {
            "doubleSided" : true,
            "name" : "NEGROMETAL_PATASREJAS",
            "pbrMetallicRoughness" : {
                "baseColorFactor" : [
                    0.004193865228444338,
                    0.004193865228444338,
                    0.004193865228444338,
                    1
                ],
                "metallicFactor" : 0.7590909004211426,
                "roughnessFactor" : 0.5
            }
        }
    ],
    "meshes" : [
        {
            "name" : "Cylinder.014",
            "primitives" : [
                {
                    "attributes" : {
                        "POSITION" : 0,
                        "TEXCOORD_0" : 1,
                        "NORMAL" : 2
                    },
                    "indices" : 3,
                    "material" : 0
                }
            ]
        }
    ],
    "accessors" : [
        {
            "bufferView" : 0,
            "componentType" : 5126,
            "count" : 5376,
            "max" : [
                12.276058197021484,
                2.95908260345459,
                12.651355743408203
            ],
            "min" : [
                -18.414762496948242,
                1.4622814655303955,
                -22.57977294921875
            ],
            "type" : "VEC3"
        },
        {
            "bufferView" : 1,
            "componentType" : 5126,
            "count" : 5376,
            "type" : "VEC2"
        },
        {
            "bufferView" : 2,
            "componentType" : 5126,
            "count" : 5376,
            "type" : "VEC3"
        },
        {
            "bufferView" : 3,
            "componentType" : 5123,
            "count" : 9408,
            "type" : "SCALAR"
        }
    ],
    "bufferViews" : [
        {
            "buffer" : 0,
            "byteLength" : 64512,
            "byteOffset" : 0,
            "target" : 34962
        },
        {
            "buffer" : 0,
            "byteLength" : 43008,
            "byteOffset" : 64512,
            "target" : 34962
        },
        {
            "buffer" : 0,
            "byteLength" : 64512,
            "byteOffset" : 107520,
            "target" : 34962
        },
        {
            "buffer" : 0,
            "byteLength" : 18816,
            "byteOffset" : 172032,
            "target" : 34963
        }
    ],
    "buffers" : [
        {
            "byteLength" : 190848,
            "uri" : "PATASREJAS.bin"
        }
    ]
}
