{
    "asset" : {
        "generator" : "Khronos glTF Blender I/O v3.4.50",
        "version" : "2.0"
    },
    "scene" : 0,
    "scenes" : [
        {
            "name" : "Scene",
            "nodes" : [
                0
            ]
        }
    ],
    "nodes" : [
        {
            "mesh" : 0,
            "name" : "Cube.032",
            "rotation" : [
                0,
                0.07866416871547699,
                0,
                0.9969011545181274
            ],
            "translation" : [
                -17.81955909729004,
                -0.060214996337890625,
                -19.901945114135742
            ]
        }
    ],
    "materials" : [
        {
            "doubleSided" : true,
            "name" : "ASIENTO",
            "pbrMetallicRoughness" : {
                "baseColorFactor" : [
                    0.6038143634796143,
                    0.578561544418335,
                    0.5065475702285767,
                    1
                ],
                "metallicFactor" : 0,
                "roughnessFactor" : 0.5871369242668152
            }
        }
    ],
    "meshes" : [
        {
            "name" : "Cube.008",
            "primitives" : [
                {
                    "attributes" : {
                        "POSITION" : 0,
                        "TEXCOORD_0" : 1,
                        "NORMAL" : 2
                    },
                    "indices" : 3,
                    "material" : 0
                }
            ]
        }
    ],
    "accessors" : [
        {
            "bufferView" : 0,
            "componentType" : 5126,
            "count" : 14448,
            "max" : [
                28.887012481689453,
                6.499205589294434,
                36.99020767211914
            ],
            "min" : [
                -4.468173503875732,
                3.0977578163146973,
                -2.4945383071899414
            ],
            "type" : "VEC3"
        },
        {
            "bufferView" : 1,
            "componentType" : 5126,
            "count" : 14448,
            "type" : "VEC2"
        },
        {
            "bufferView" : 2,
            "componentType" : 5126,
            "count" : 14448,
            "type" : "VEC3"
        },
        {
            "bufferView" : 3,
            "componentType" : 5123,
            "count" : 21672,
            "type" : "SCALAR"
        }
    ],
    "bufferViews" : [
        {
            "buffer" : 0,
            "byteLength" : 173376,
            "byteOffset" : 0,
            "target" : 34962
        },
        {
            "buffer" : 0,
            "byteLength" : 115584,
            "byteOffset" : 173376,
            "target" : 34962
        },
        {
            "buffer" : 0,
            "byteLength" : 173376,
            "byteOffset" : 288960,
            "target" : 34962
        },
        {
            "buffer" : 0,
            "byteLength" : 43344,
            "byteOffset" : 462336,
            "target" : 34963
        }
    ],
    "buffers" : [
        {
            "byteLength" : 505680,
            "uri" : "SILLASSOLIDAS.bin"
        }
    ]
}
