{
    "asset" : {
        "generator" : "Khronos glTF Blender I/O v3.4.50",
        "version" : "2.0"
    },
    "scene" : 0,
    "scenes" : [
        {
            "name" : "Scene",
            "nodes" : [
                0
            ]
        }
    ],
    "nodes" : [
        {
            "mesh" : 0,
            "name" : "Cube.032",
            "rotation" : [
                0,
                0.07866416871547699,
                0,
                0.9969011545181274
            ]
        }
    ],
    "materials" : [
        {
            "doubleSided" : true,
            "name" : "ASIENTO",
            "pbrMetallicRoughness" : {
                "baseColorTexture" : {
                    "index" : 0
                },
                "metallicFactor" : 0,
                "roughnessFactor" : 0.5871369242668152
            }
        }
    ],
    "meshes" : [
        {
            "name" : "Cube.008",
            "primitives" : [
                {
                    "attributes" : {
                        "POSITION" : 0,
                        "TEXCOORD_0" : 1,
                        "NORMAL" : 2
                    },
                    "indices" : 3,
                    "material" : 0
                }
            ]
        }
    ],
    "textures" : [
        {
            "sampler" : 0,
            "source" : 0
        }
    ],
    "images" : [
        {
            "mimeType" : "image/jpeg",
            "name" : "COLORSILLAS",
            "uri" : "COLORSILLAS.jpg"
        }
    ],
    "accessors" : [
        {
            "bufferView" : 0,
            "componentType" : 5126,
            "count" : 57792,
            "max" : [
                14.373628616333008,
                6.399787425994873,
                14.501386642456055
            ],
            "min" : [
                -18.912809371948242,
                3.046863555908203,
                -24.901256561279297
            ],
            "type" : "VEC3"
        },
        {
            "bufferView" : 1,
            "componentType" : 5126,
            "count" : 57792,
            "type" : "VEC2"
        },
        {
            "bufferView" : 2,
            "componentType" : 5126,
            "count" : 57792,
            "type" : "VEC3"
        },
        {
            "bufferView" : 3,
            "componentType" : 5123,
            "count" : 86688,
            "type" : "SCALAR"
        }
    ],
    "bufferViews" : [
        {
            "buffer" : 0,
            "byteLength" : 693504,
            "byteOffset" : 0,
            "target" : 34962
        },
        {
            "buffer" : 0,
            "byteLength" : 462336,
            "byteOffset" : 693504,
            "target" : 34962
        },
        {
            "buffer" : 0,
            "byteLength" : 693504,
            "byteOffset" : 1155840,
            "target" : 34962
        },
        {
            "buffer" : 0,
            "byteLength" : 173376,
            "byteOffset" : 1849344,
            "target" : 34963
        }
    ],
    "samplers" : [
        {
            "magFilter" : 9729,
            "minFilter" : 9987
        }
    ],
    "buffers" : [
        {
            "byteLength" : 2022720,
            "uri" : "SILLAS.bin"
        }
    ]
}
